<svg width="78" height="20" viewBox="0 0 78 20" fill="none" xmlns="http://www.w3.org/2000/svg">
<path d="M13.0535 18.2789C12.0735 19.2289 11.0035 19.0789 9.97352 18.6289C8.88352 18.1689 7.88352 18.1489 6.73352 18.6289C5.29352 19.2489 4.53352 19.0689 3.67352 18.2789C-1.20648 13.2489 -0.486479 5.58886 5.05352 5.30886C6.40352 5.37886 7.34352 6.04886 8.13352 6.10886C9.31352 5.86886 10.4435 5.17886 11.7035 5.26886C13.2135 5.38886 14.3535 5.98886 15.1035 7.06886C11.9835 8.93886 12.7235 13.0489 15.5835 14.1989C15.0135 15.6989 14.2735 17.1889 13.0435 18.2889L13.0535 18.2789ZM8.03352 5.24886C7.88352 3.01886 9.69352 1.17886 11.7735 0.998863C12.0635 3.57886 9.43352 5.49886 8.03352 5.24886Z" fill="black"/>
<path d="M26.235 15H24.093L27.3568 5.54545H29.9328L33.1921 15H31.05L28.6818 7.70597H28.6079L26.235 15ZM26.1012 11.2837H31.1608V12.8441H26.1012V11.2837ZM34.2931 17.6591V7.90909H36.232V9.10014H36.3197C36.4059 8.90933 36.5306 8.71544 36.6937 8.51847C36.8599 8.31842 37.0753 8.15223 37.34 8.01989C37.6077 7.88447 37.9401 7.81676 38.3371 7.81676C38.8542 7.81676 39.3312 7.95218 39.7682 8.22301C40.2053 8.49077 40.5546 8.89548 40.8162 9.43714C41.0778 9.97573 41.2086 10.6513 41.2086 11.4638C41.2086 12.2547 41.0809 12.9226 40.8254 13.4673C40.5731 14.009 40.2284 14.4199 39.7913 14.6999C39.3574 14.9769 38.8711 15.1154 38.3325 15.1154C37.9509 15.1154 37.6262 15.0523 37.3584 14.9261C37.0938 14.8 36.8768 14.6415 36.7075 14.4506C36.5382 14.2567 36.409 14.0613 36.3197 13.8643H36.2597V17.6591H34.2931ZM36.2182 11.4545C36.2182 11.8762 36.2766 12.244 36.3936 12.5579C36.5105 12.8718 36.6798 13.1165 36.9014 13.2919C37.123 13.4643 37.3923 13.5504 37.7093 13.5504C38.0294 13.5504 38.3002 13.4627 38.5218 13.2873C38.7434 13.1088 38.9111 12.8626 39.025 12.5487C39.1419 12.2317 39.2004 11.867 39.2004 11.4545C39.2004 11.0452 39.1435 10.6851 39.0296 10.3743C38.9157 10.0634 38.748 9.82031 38.5264 9.64489C38.3048 9.46946 38.0324 9.38175 37.7093 9.38175C37.3892 9.38175 37.1184 9.46638 36.8968 9.63565C36.6783 9.80492 36.5105 10.045 36.3936 10.3558C36.2766 10.6667 36.2182 11.0329 36.2182 11.4545ZM42.5197 17.6591V7.90909H44.4586V9.10014H44.5463C44.6325 8.90933 44.7571 8.71544 44.9202 8.51847C45.0864 8.31842 45.3019 8.15223 45.5665 8.01989C45.8343 7.88447 46.1667 7.81676 46.5637 7.81676C47.0807 7.81676 47.5578 7.95218 47.9948 8.22301C48.4318 8.49077 48.7811 8.89548 49.0427 9.43714C49.3043 9.97573 49.4351 10.6513 49.4351 11.4638C49.4351 12.2547 49.3074 12.9226 49.052 13.4673C48.7996 14.009 48.4549 14.4199 48.0179 14.6999C47.5839 14.9769 47.0977 15.1154 46.5591 15.1154C46.1775 15.1154 45.8528 15.0523 45.585 14.9261C45.3203 14.8 45.1034 14.6415 44.9341 14.4506C44.7648 14.2567 44.6355 14.0613 44.5463 13.8643H44.4863V17.6591H42.5197ZM44.4447 11.4545C44.4447 11.8762 44.5032 12.244 44.6202 12.5579C44.7371 12.8718 44.9064 13.1165 45.128 13.2919C45.3496 13.4643 45.6189 13.5504 45.9359 13.5504C46.2559 13.5504 46.5268 13.4627 46.7484 13.2873C46.9699 13.1088 47.1377 12.8626 47.2516 12.5487C47.3685 12.2317 47.427 11.867 47.427 11.4545C47.427 11.0452 47.37 10.6851 47.2562 10.3743C47.1423 10.0634 46.9746 9.82031 46.753 9.64489C46.5314 9.46946 46.259 9.38175 45.9359 9.38175C45.6158 9.38175 45.3449 9.46638 45.1234 9.63565C44.9048 9.80492 44.7371 10.045 44.6202 10.3558C44.5032 10.6667 44.4447 11.0329 44.4447 11.4545ZM52.7128 5.54545V15H50.7462V5.54545H52.7128ZM57.5198 15.1385C56.7903 15.1385 56.1625 14.9908 55.6362 14.6953C55.113 14.3968 54.7099 13.9751 54.4267 13.4304C54.1436 12.8826 54.002 12.2347 54.002 11.4869C54.002 10.7575 54.1436 10.1173 54.4267 9.56641C54.7099 9.01551 55.1084 8.58617 55.6224 8.27841C56.1394 7.97064 56.7457 7.81676 57.4413 7.81676C57.9091 7.81676 58.3446 7.89216 58.7477 8.04297C59.154 8.1907 59.5079 8.41383 59.8095 8.71236C60.1142 9.01089 60.3512 9.38636 60.5205 9.83878C60.6897 10.2881 60.7744 10.8144 60.7744 11.4176V11.9577H54.7868V10.739H58.9232C58.9232 10.4558 58.8616 10.205 58.7385 9.98651C58.6154 9.76799 58.4446 9.59718 58.2261 9.47408C58.0106 9.34789 57.7598 9.2848 57.4736 9.2848C57.1751 9.2848 56.9104 9.35405 56.6796 9.49254C56.4518 9.62796 56.2733 9.81108 56.144 10.0419C56.0148 10.2696 55.9486 10.5236 55.9455 10.8036V11.9624C55.9455 12.3132 56.0102 12.6164 56.1394 12.8718C56.2718 13.1272 56.458 13.3242 56.698 13.4627C56.9381 13.6012 57.2228 13.6705 57.5521 13.6705C57.7706 13.6705 57.9706 13.6397 58.1522 13.5781C58.3338 13.5166 58.4892 13.4242 58.6185 13.3011C58.7477 13.178 58.8462 13.0272 58.9139 12.8487L60.7328 12.9688C60.6405 13.4058 60.4512 13.7874 60.165 14.1136C59.8819 14.4368 59.5156 14.6892 59.0663 14.8707C58.62 15.0492 58.1045 15.1385 57.5198 15.1385ZM67.1024 5.54545V15H65.1035V5.54545H67.1024ZM72.0986 15H68.747V5.54545H72.1263C73.0773 5.54545 73.8959 5.73473 74.5823 6.11328C75.2686 6.48875 75.7964 7.02888 76.1657 7.73366C76.5381 8.43845 76.7243 9.28172 76.7243 10.2635C76.7243 11.2483 76.5381 12.0947 76.1657 12.8026C75.7964 13.5104 75.2655 14.0536 74.573 14.4322C73.8836 14.8107 73.0588 15 72.0986 15ZM70.746 13.2873H72.0155C72.6064 13.2873 73.1034 13.1826 73.5066 12.9734C73.9129 12.761 74.2176 12.4332 74.4207 11.9901C74.6269 11.5438 74.73 10.9683 74.73 10.2635C74.73 9.56487 74.6269 8.99396 74.4207 8.55078C74.2176 8.1076 73.9144 7.78137 73.5112 7.57209C73.1081 7.36281 72.611 7.25817 72.0201 7.25817H70.746V13.2873Z" fill="black"/>
</svg>
