<svg width="90" height="18" viewBox="0 0 90 18" fill="none" xmlns="http://www.w3.org/2000/svg">
<path d="M18.2719 9.02193C18.2719 4.17982 14.3421 0.25 9.50002 0.25C4.65791 0.25 0.728088 4.17982 0.728088 9.02193C0.728088 13.2675 3.74563 16.8026 7.74563 17.6184V11.6535H5.99125V9.02193H7.74563V6.82895C7.74563 5.13596 9.12283 3.75877 10.8158 3.75877H13.0088V6.39035H11.2544C10.7719 6.39035 10.3772 6.78509 10.3772 7.26754V9.02193H13.0088V11.6535H10.3772V17.75C14.807 17.3114 18.2719 13.5746 18.2719 9.02193Z" fill="black"/>
<path d="M27.4775 14V4.54545H33.7374V6.19354H29.4764V8.44638H33.322V10.0945H29.4764V14H27.4775ZM36.9782 14.1339C36.5258 14.1339 36.1226 14.0554 35.7687 13.8984C35.4148 13.7384 35.1347 13.503 34.9285 13.1921C34.7254 12.8782 34.6238 12.4873 34.6238 12.0195C34.6238 11.6256 34.6961 11.2947 34.8408 11.027C34.9854 10.7592 35.1824 10.5438 35.4317 10.3807C35.681 10.2176 35.9641 10.0945 36.2811 10.0114C36.6012 9.92827 36.9367 9.86979 37.2875 9.83594C37.6999 9.79285 38.0323 9.75284 38.2847 9.71591C38.537 9.6759 38.7202 9.61742 38.834 9.54048C38.9479 9.46354 39.0048 9.34967 39.0048 9.19886V9.17116C39.0048 8.87879 38.9125 8.65258 38.7278 8.49254C38.5463 8.3325 38.2877 8.25249 37.9523 8.25249C37.5984 8.25249 37.3167 8.33097 37.1075 8.48793C36.8982 8.64181 36.7597 8.8357 36.692 9.0696L34.8731 8.92188C34.9654 8.491 35.147 8.11861 35.4178 7.80469C35.6887 7.48769 36.038 7.24455 36.4658 7.07528C36.8966 6.90294 37.3952 6.81676 37.9615 6.81676C38.3555 6.81676 38.7325 6.86293 39.0926 6.95526C39.4557 7.04759 39.7773 7.1907 40.0574 7.38459C40.3405 7.57848 40.5637 7.82777 40.7268 8.13246C40.8899 8.43407 40.9715 8.79569 40.9715 9.21733V14H39.1064V13.0167H39.051C38.9371 13.2383 38.7848 13.4337 38.594 13.603C38.4032 13.7692 38.1739 13.9 37.9061 13.9954C37.6384 14.0877 37.3291 14.1339 36.9782 14.1339ZM37.5414 12.7766C37.8307 12.7766 38.0862 12.7197 38.3078 12.6058C38.5293 12.4889 38.7032 12.3319 38.8294 12.1349C38.9556 11.938 39.0187 11.7148 39.0187 11.4656V10.7131C38.9571 10.7531 38.8725 10.79 38.7648 10.8239C38.6601 10.8546 38.5417 10.8839 38.4093 10.9116C38.277 10.9362 38.1446 10.9593 38.0123 10.9808C37.88 10.9993 37.7599 11.0162 37.6522 11.0316C37.4214 11.0655 37.2198 11.1193 37.0475 11.1932C36.8751 11.267 36.7412 11.3671 36.6458 11.4933C36.5504 11.6164 36.5027 11.7702 36.5027 11.9549C36.5027 12.2227 36.5997 12.4273 36.7935 12.5689C36.9905 12.7074 37.2398 12.7766 37.5414 12.7766ZM45.701 14.1385C44.9747 14.1385 44.3499 13.9846 43.8267 13.6768C43.3066 13.366 42.9065 12.9351 42.6265 12.3842C42.3495 11.8333 42.211 11.1993 42.211 10.4822C42.211 9.75592 42.351 9.11884 42.6311 8.57102C42.9142 8.02012 43.3159 7.59079 43.836 7.28303C44.3561 6.97218 44.9747 6.81676 45.6918 6.81676C46.3104 6.81676 46.8521 6.9291 47.3168 7.15376C47.7815 7.37843 48.1493 7.69389 48.4201 8.10014C48.691 8.50639 48.8402 8.98343 48.8679 9.53125H47.0121C46.9598 9.17732 46.8213 8.89264 46.5966 8.6772C46.375 8.45869 46.0842 8.34943 45.7241 8.34943C45.4194 8.34943 45.1532 8.43253 44.9255 8.59872C44.7008 8.76184 44.5254 9.00036 44.3992 9.31428C44.273 9.6282 44.2099 10.0083 44.2099 10.4545C44.2099 10.907 44.2715 11.2917 44.3946 11.6087C44.5208 11.9257 44.6977 12.1673 44.9255 12.3335C45.1532 12.4996 45.4194 12.5827 45.7241 12.5827C45.9488 12.5827 46.1504 12.5366 46.3289 12.4442C46.5105 12.3519 46.6597 12.218 46.7767 12.0426C46.8967 11.8641 46.9752 11.6502 47.0121 11.4009H48.8679C48.8372 11.9426 48.6894 12.4196 48.4248 12.832C48.1632 13.2414 47.8015 13.5614 47.3399 13.7923C46.8782 14.0231 46.332 14.1385 45.701 14.1385ZM53.3586 14.1385C52.6292 14.1385 52.0014 13.9908 51.4751 13.6953C50.9519 13.3968 50.5487 12.9751 50.2656 12.4304C49.9824 11.8826 49.8409 11.2347 49.8409 10.4869C49.8409 9.75746 49.9824 9.11731 50.2656 8.56641C50.5487 8.01551 50.9473 7.58617 51.4612 7.27841C51.9783 6.97064 52.5846 6.81676 53.2801 6.81676C53.7479 6.81676 54.1834 6.89216 54.5866 7.04297C54.9929 7.1907 55.3468 7.41383 55.6484 7.71236C55.9531 8.01089 56.1901 8.38636 56.3593 8.83878C56.5286 9.28812 56.6132 9.81439 56.6132 10.4176V10.9577H50.6257V9.73899H54.762C54.762 9.45585 54.7005 9.20502 54.5774 8.98651C54.4543 8.76799 54.2835 8.59718 54.0649 8.47408C53.8495 8.34789 53.5987 8.2848 53.3125 8.2848C53.0139 8.2848 52.7492 8.35405 52.5184 8.49254C52.2907 8.62796 52.1122 8.81108 51.9829 9.0419C51.8536 9.26965 51.7875 9.52356 51.7844 9.80362V10.9624C51.7844 11.3132 51.849 11.6164 51.9783 11.8718C52.1106 12.1272 52.2968 12.3242 52.5369 12.4627C52.7769 12.6012 53.0616 12.6705 53.3909 12.6705C53.6094 12.6705 53.8095 12.6397 53.9911 12.5781C54.1727 12.5166 54.3281 12.4242 54.4573 12.3011C54.5866 12.178 54.6851 12.0272 54.7528 11.8487L56.5717 11.9688C56.4794 12.4058 56.2901 12.7874 56.0039 13.1136C55.7207 13.4368 55.3545 13.6892 54.9051 13.8707C54.4589 14.0492 53.9434 14.1385 53.3586 14.1385ZM57.9335 14V4.54545H59.9002V8.10014H59.9602C60.0464 7.90933 60.171 7.71544 60.3341 7.51847C60.5003 7.31842 60.7157 7.15223 60.9804 7.01989C61.2482 6.88447 61.5806 6.81676 61.9776 6.81676C62.4946 6.81676 62.9717 6.95218 63.4087 7.22301C63.8457 7.49077 64.195 7.89548 64.4566 8.43714C64.7182 8.97573 64.849 9.65128 64.849 10.4638C64.849 11.2547 64.7213 11.9226 64.4659 12.4673C64.2135 13.009 63.8688 13.4199 63.4318 13.6999C62.9978 13.9769 62.5116 14.1154 61.973 14.1154C61.5913 14.1154 61.2666 14.0523 60.9989 13.9261C60.7342 13.8 60.5172 13.6415 60.348 13.4506C60.1787 13.2567 60.0494 13.0613 59.9602 12.8643H59.8725V14H57.9335ZM59.8586 10.4545C59.8586 10.8762 59.9171 11.244 60.034 11.5579C60.151 11.8718 60.3203 12.1165 60.5419 12.2919C60.7635 12.4643 61.0327 12.5504 61.3497 12.5504C61.6698 12.5504 61.9407 12.4627 62.1622 12.2873C62.3838 12.1088 62.5516 11.8626 62.6654 11.5487C62.7824 11.2317 62.8409 10.867 62.8409 10.4545C62.8409 10.0452 62.7839 9.68513 62.6701 9.37429C62.5562 9.06345 62.3885 8.82031 62.1669 8.64489C61.9453 8.46946 61.6729 8.38175 61.3497 8.38175C61.0297 8.38175 60.7588 8.46638 60.5372 8.63565C60.3187 8.80492 60.151 9.04498 60.034 9.35582C59.9171 9.66667 59.8586 10.0329 59.8586 10.4545ZM69.3651 14.1385C68.648 14.1385 68.0279 13.9862 67.5047 13.6815C66.9845 13.3737 66.5829 12.9459 66.2998 12.3981C66.0166 11.8472 65.875 11.2086 65.875 10.4822C65.875 9.74976 66.0166 9.10961 66.2998 8.56179C66.5829 8.01089 66.9845 7.5831 67.5047 7.27841C68.0279 6.97064 68.648 6.81676 69.3651 6.81676C70.0822 6.81676 70.7008 6.97064 71.2209 7.27841C71.7441 7.5831 72.1473 8.01089 72.4304 8.56179C72.7136 9.10961 72.8552 9.74976 72.8552 10.4822C72.8552 11.2086 72.7136 11.8472 72.4304 12.3981C72.1473 12.9459 71.7441 13.3737 71.2209 13.6815C70.7008 13.9862 70.0822 14.1385 69.3651 14.1385ZM69.3743 12.6151C69.7006 12.6151 69.9729 12.5227 70.1915 12.3381C70.41 12.1503 70.5746 11.8949 70.6854 11.5717C70.7993 11.2486 70.8562 10.8808 70.8562 10.4684C70.8562 10.056 70.7993 9.68821 70.6854 9.36506C70.5746 9.0419 70.41 8.78646 70.1915 8.59872C69.9729 8.41098 69.7006 8.31712 69.3743 8.31712C69.045 8.31712 68.768 8.41098 68.5434 8.59872C68.3218 8.78646 68.154 9.0419 68.0402 9.36506C67.9294 9.68821 67.874 10.056 67.874 10.4684C67.874 10.8808 67.9294 11.2486 68.0402 11.5717C68.154 11.8949 68.3218 12.1503 68.5434 12.3381C68.768 12.5227 69.045 12.6151 69.3743 12.6151ZM77.3378 14.1385C76.6207 14.1385 76.0005 13.9862 75.4773 13.6815C74.9572 13.3737 74.5556 12.9459 74.2724 12.3981C73.9893 11.8472 73.8477 11.2086 73.8477 10.4822C73.8477 9.74976 73.9893 9.10961 74.2724 8.56179C74.5556 8.01089 74.9572 7.5831 75.4773 7.27841C76.0005 6.97064 76.6207 6.81676 77.3378 6.81676C78.0549 6.81676 78.6735 6.97064 79.1936 7.27841C79.7168 7.5831 80.12 8.01089 80.4031 8.56179C80.6862 9.10961 80.8278 9.74976 80.8278 10.4822C80.8278 11.2086 80.6862 11.8472 80.4031 12.3981C80.12 12.9459 79.7168 13.3737 79.1936 13.6815C78.6735 13.9862 78.0549 14.1385 77.3378 14.1385ZM77.347 12.6151C77.6732 12.6151 77.9456 12.5227 78.1641 12.3381C78.3826 12.1503 78.5473 11.8949 78.6581 11.5717C78.7719 11.2486 78.8289 10.8808 78.8289 10.4684C78.8289 10.056 78.7719 9.68821 78.6581 9.36506C78.5473 9.0419 78.3826 8.78646 78.1641 8.59872C77.9456 8.41098 77.6732 8.31712 77.347 8.31712C77.0177 8.31712 76.7407 8.41098 76.516 8.59872C76.2944 8.78646 76.1267 9.0419 76.0128 9.36506C75.902 9.68821 75.8466 10.056 75.8466 10.4684C75.8466 10.8808 75.902 11.2486 76.0128 11.5717C76.1267 11.8949 76.2944 12.1503 76.516 12.3381C76.7407 12.5227 77.0177 12.6151 77.347 12.6151ZM83.8885 11.9595L83.8932 9.6005H84.1794L86.4507 6.90909H88.7081L85.6566 10.473H85.1904L83.8885 11.9595ZM82.1066 14V4.54545H84.0732V14H82.1066ZM86.5384 14L84.4517 10.9116L85.7628 9.52202L88.842 14H86.5384Z" fill="black"/>
</svg>
