<svg width="74" height="20" viewBox="0 0 74 20" fill="none" xmlns="http://www.w3.org/2000/svg">
<path d="M18.4828 8.65156L18.3945 8.27695H10.2523V11.723H15.1172C14.6121 14.1215 12.2684 15.384 10.3539 15.384C8.96094 15.384 7.49258 14.798 6.5207 13.8562C6.00794 13.3514 5.59979 12.7504 5.31961 12.0876C5.03943 11.4248 4.89272 10.7133 4.88789 9.99375C4.88789 8.54219 5.54023 7.09023 6.48945 6.13516C7.43867 5.18008 8.87227 4.6457 10.2977 4.6457C11.9301 4.6457 13.1 5.5125 13.5375 5.90781L15.9863 3.47187C15.268 2.84062 13.2945 1.25 10.2188 1.25C7.8457 1.25 5.57031 2.15898 3.90703 3.8168C2.26562 5.44922 1.41602 7.80977 1.41602 10C1.41602 12.1902 2.21992 14.4328 3.81055 16.0781C5.51016 17.8328 7.91719 18.75 10.3957 18.75C12.6508 18.75 14.7883 17.8664 16.3117 16.2633C17.8094 14.6852 18.584 12.5016 18.584 10.2125C18.584 9.24883 18.4871 8.67656 18.4828 8.65156Z" fill="black"/>
<path d="M35.4044 8.60156C35.3398 8.37689 35.249 8.17839 35.132 8.00604C35.0151 7.83061 34.872 7.68288 34.7027 7.56286C34.5365 7.43975 34.3457 7.34588 34.1302 7.28125C33.9179 7.21662 33.6824 7.1843 33.4239 7.1843C32.9407 7.1843 32.516 7.30433 32.1498 7.54439C31.7866 7.78445 31.5035 8.13376 31.3003 8.59233C31.0972 9.04782 30.9956 9.60488 30.9956 10.2635C30.9956 10.9221 31.0957 11.4822 31.2957 11.9439C31.4958 12.4055 31.7789 12.7579 32.1452 13.0011C32.5114 13.2411 32.9438 13.3612 33.4424 13.3612C33.8948 13.3612 34.281 13.2811 34.6011 13.1211C34.9243 12.958 35.1705 12.7287 35.3398 12.4332C35.5121 12.1378 35.5983 11.7885 35.5983 11.3853L36.0045 11.4453H33.567V9.94034H37.5233V11.1314C37.5233 11.9624 37.3479 12.6764 36.9971 13.2734C36.6462 13.8674 36.163 14.326 35.5475 14.6491C34.932 14.9692 34.2272 15.1293 33.4331 15.1293C32.5468 15.1293 31.7681 14.9338 31.0972 14.543C30.4263 14.149 29.9031 13.5904 29.5276 12.8672C29.1552 12.1409 28.969 11.2791 28.969 10.282C28.969 9.51562 29.0798 8.83239 29.3014 8.23224C29.5261 7.62902 29.84 7.11813 30.2432 6.69957C30.6463 6.28101 31.1157 5.96248 31.6512 5.74396C32.1867 5.52545 32.7668 5.41619 33.3916 5.41619C33.9271 5.41619 34.4257 5.49467 34.8873 5.65163C35.349 5.80552 35.7583 6.02403 36.1153 6.30717C36.4754 6.59032 36.7693 6.92732 36.9971 7.31818C37.2248 7.70597 37.371 8.13376 37.4356 8.60156H35.4044ZM42.1918 15.1385C41.4747 15.1385 40.8545 14.9862 40.3313 14.6815C39.8112 14.3737 39.4096 13.9459 39.1264 13.3981C38.8433 12.8472 38.7017 12.2086 38.7017 11.4822C38.7017 10.7498 38.8433 10.1096 39.1264 9.56179C39.4096 9.01089 39.8112 8.5831 40.3313 8.27841C40.8545 7.97064 41.4747 7.81676 42.1918 7.81676C42.9089 7.81676 43.5275 7.97064 44.0476 8.27841C44.5708 8.5831 44.974 9.01089 45.2571 9.56179C45.5402 10.1096 45.6818 10.7498 45.6818 11.4822C45.6818 12.2086 45.5402 12.8472 45.2571 13.3981C44.974 13.9459 44.5708 14.3737 44.0476 14.6815C43.5275 14.9862 42.9089 15.1385 42.1918 15.1385ZM42.201 13.6151C42.5272 13.6151 42.7996 13.5227 43.0181 13.3381C43.2366 13.1503 43.4013 12.8949 43.5121 12.5717C43.6259 12.2486 43.6829 11.8808 43.6829 11.4684C43.6829 11.056 43.6259 10.6882 43.5121 10.3651C43.4013 10.0419 43.2366 9.78646 43.0181 9.59872C42.7996 9.41098 42.5272 9.31712 42.201 9.31712C41.8717 9.31712 41.5947 9.41098 41.37 9.59872C41.1484 9.78646 40.9807 10.0419 40.8668 10.3651C40.756 10.6882 40.7006 11.056 40.7006 11.4684C40.7006 11.8808 40.756 12.2486 40.8668 12.5717C40.9807 12.8949 41.1484 13.1503 41.37 13.3381C41.5947 13.5227 41.8717 13.6151 42.201 13.6151ZM50.1644 15.1385C49.4473 15.1385 48.8272 14.9862 48.304 14.6815C47.7839 14.3737 47.3822 13.9459 47.0991 13.3981C46.8159 12.8472 46.6744 12.2086 46.6744 11.4822C46.6744 10.7498 46.8159 10.1096 47.0991 9.56179C47.3822 9.01089 47.7839 8.5831 48.304 8.27841C48.8272 7.97064 49.4473 7.81676 50.1644 7.81676C50.8815 7.81676 51.5001 7.97064 52.0202 8.27841C52.5434 8.5831 52.9466 9.01089 53.2298 9.56179C53.5129 10.1096 53.6545 10.7498 53.6545 11.4822C53.6545 12.2086 53.5129 12.8472 53.2298 13.3981C52.9466 13.9459 52.5434 14.3737 52.0202 14.6815C51.5001 14.9862 50.8815 15.1385 50.1644 15.1385ZM50.1737 13.6151C50.4999 13.6151 50.7723 13.5227 50.9908 13.3381C51.2093 13.1503 51.3739 12.8949 51.4847 12.5717C51.5986 12.2486 51.6555 11.8808 51.6555 11.4684C51.6555 11.056 51.5986 10.6882 51.4847 10.3651C51.3739 10.0419 51.2093 9.78646 50.9908 9.59872C50.7723 9.41098 50.4999 9.31712 50.1737 9.31712C49.8443 9.31712 49.5674 9.41098 49.3427 9.59872C49.1211 9.78646 48.9534 10.0419 48.8395 10.3651C48.7287 10.6882 48.6733 11.056 48.6733 11.4684C48.6733 11.8808 48.7287 12.2486 48.8395 12.5717C48.9534 12.8949 49.1211 13.1503 49.3427 13.3381C49.5674 13.5227 49.8443 13.6151 50.1737 13.6151ZM58.1278 17.8068C57.4908 17.8068 56.9445 17.7191 56.489 17.5437C56.0366 17.3713 55.6765 17.1359 55.4087 16.8374C55.141 16.5388 54.9671 16.2034 54.8871 15.831L56.706 15.5863C56.7614 15.7279 56.8491 15.8602 56.9691 15.9833C57.0891 16.1064 57.2476 16.2049 57.4446 16.2788C57.6446 16.3557 57.8878 16.3942 58.174 16.3942C58.6018 16.3942 58.9542 16.2895 59.2312 16.0803C59.5112 15.8741 59.6513 15.5278 59.6513 15.0415V13.7443H59.5682C59.482 13.9413 59.3527 14.1275 59.1804 14.3029C59.008 14.4783 58.7865 14.6214 58.5156 14.7322C58.2448 14.843 57.9216 14.8984 57.5462 14.8984C57.0137 14.8984 56.529 14.7753 56.092 14.5291C55.658 14.2798 55.3118 13.8997 55.0533 13.3888C54.7978 12.8749 54.6701 12.2255 54.6701 11.4407C54.6701 10.6374 54.8009 9.9665 55.0625 9.42791C55.3241 8.88932 55.6719 8.48615 56.1058 8.21839C56.5429 7.95064 57.0214 7.81676 57.5415 7.81676C57.9386 7.81676 58.271 7.88447 58.5387 8.01989C58.8065 8.15223 59.0219 8.31842 59.185 8.51847C59.3512 8.71544 59.4789 8.90933 59.5682 9.10014H59.642V7.90909H61.5948V15.0692C61.5948 15.6725 61.4471 16.1772 61.1516 16.5835C60.8562 16.9897 60.4469 17.2944 59.9237 17.4975C59.4035 17.7037 58.8049 17.8068 58.1278 17.8068ZM58.1694 13.4212C58.4864 13.4212 58.7541 13.3427 58.9727 13.1857C59.1942 13.0257 59.3635 12.7979 59.4805 12.5025C59.6005 12.204 59.6605 11.8469 59.6605 11.4315C59.6605 11.016 59.602 10.6559 59.4851 10.3512C59.3681 10.0434 59.1989 9.80492 58.9773 9.63565C58.7557 9.46638 58.4864 9.38175 58.1694 9.38175C57.8462 9.38175 57.5739 9.46946 57.3523 9.64489C57.1307 9.81723 56.9629 10.0573 56.8491 10.3651C56.7352 10.6728 56.6783 11.0283 56.6783 11.4315C56.6783 11.8408 56.7352 12.1947 56.8491 12.4933C56.966 12.7887 57.1338 13.018 57.3523 13.1811C57.5739 13.3411 57.8462 13.4212 58.1694 13.4212ZM65.1264 5.54545V15H63.1598V5.54545H65.1264ZM69.9333 15.1385C69.2039 15.1385 68.5761 14.9908 68.0498 14.6953C67.5266 14.3968 67.1234 13.9751 66.8403 13.4304C66.5571 12.8826 66.4156 12.2347 66.4156 11.4869C66.4156 10.7575 66.5571 10.1173 66.8403 9.56641C67.1234 9.01551 67.522 8.58617 68.036 8.27841C68.553 7.97064 69.1593 7.81676 69.8548 7.81676C70.3227 7.81676 70.7581 7.89216 71.1613 8.04297C71.5676 8.1907 71.9215 8.41383 72.2231 8.71236C72.5278 9.01089 72.7648 9.38636 72.934 9.83878C73.1033 10.2881 73.1879 10.8144 73.1879 11.4176V11.9577H67.2004V10.739H71.3367C71.3367 10.4558 71.2752 10.205 71.1521 9.98651C71.029 9.76799 70.8582 9.59718 70.6396 9.47408C70.4242 9.34789 70.1734 9.2848 69.8872 9.2848C69.5886 9.2848 69.324 9.35405 69.0931 9.49254C68.8654 9.62796 68.6869 9.81108 68.5576 10.0419C68.4284 10.2696 68.3622 10.5236 68.3591 10.8036V11.9624C68.3591 12.3132 68.4237 12.6164 68.553 12.8718C68.6853 13.1272 68.8715 13.3242 69.1116 13.4627C69.3517 13.6012 69.6363 13.6705 69.9656 13.6705C70.1842 13.6705 70.3842 13.6397 70.5658 13.5781C70.7474 13.5166 70.9028 13.4242 71.032 13.3011C71.1613 13.178 71.2598 13.0272 71.3275 12.8487L73.1464 12.9688C73.0541 13.4058 72.8648 13.7874 72.5786 14.1136C72.2954 14.4368 71.9292 14.6892 71.4798 14.8707C71.0336 15.0492 70.5181 15.1385 69.9333 15.1385Z" fill="black"/>
</svg>
